# xmcd
#
# Track frame offsets:
#	150
#	13602
#	30144
#	47310
#	68452
#	83827
#	94155
#	116387
#	134390
#	147002
#
# Disc length: 2226 seconds
#
# Revision: 0
# Processed by: cddbd v1.5PL3 Copyright (c) Steve Scherf et al.
# Submitted via: dBpowerAMP V4.0
#
DISCID=6b08b00a
DTITLE=Kirk Talley - Shhhh
DYEAR=1997
DGENRE=Gospel
TTITLE0=Good Things
TTITLE1=Look Up High
TTITLE2=God Has A Different Plan
TTITLE3=Naaman
TTITLE4=No Other Word For Grace
TTITLE5=Over The Hill
TTITLE6=Quiet Time
TTITLE7=In The Shadow
TTITLE8=Step Into The Water
TTITLE9=In A Wonderful Way
EXTD=Tony Partigianoni
EXTT0=
EXTT1=
EXTT2=
EXTT3=
EXTT4=
EXTT5=
EXTT6=
EXTT7=
EXTT8=
EXTT9=
PLAYORDER=
